<?xml version="1.0" encoding="UTF-8"?>
<svg id="Layer_1" data-name="Layer 1" xmlns="http://www.w3.org/2000/svg" viewBox="0 0 60 60">
  <defs>
    <style>
      .cls-1 {
        fill: #c6a44e;
      }

      .cls-2 {
        fill: #151411;
      }
    </style>
  </defs>
  <circle class="cls-2" cx="30" cy="30" r="30"/>
  <g>
    <g>
      <path d="M13.58,22.53c0-.41-.04-.74-.13-1-.09-.25-.19-.45-.32-.58-.13-.13-.29-.24-.51-.31h2.72l4.3,10.99,4.23-10.99h2.54c-.29.1-.5.31-.64.64-.14.33-.21.76-.21,1.29v10.23c0,.57.08,1.03.23,1.38.16.35.35.55.59.59h-3.12c.25-.06.45-.26.59-.6.14-.35.22-.8.22-1.37v-9.93l-4.73,12.16-4.73-12.16v9.8c0,.45.05.83.14,1.12.09.3.21.53.36.69.14.16.3.26.46.29h-2.99c.16-.03.32-.12.48-.28.16-.16.28-.38.38-.68.09-.3.14-.68.14-1.15v-10.14Z"/>
      <path d="M38.24,33.04c-.5.65-1.1,1.16-1.8,1.52-.7.36-1.48.54-2.33.54-1.23,0-2.3-.29-3.22-.88-.92-.59-1.64-1.43-2.16-2.53-.52-1.1-.78-2.33-.78-3.7,0-1.44.29-2.77.87-3.98s1.37-2.13,2.37-2.77c1-.64,2.13-.95,3.39-.95s2.35.3,3.36.91v3.08c-.63-1.9-1.87-2.84-3.72-2.84-1.39,0-2.51.59-3.35,1.77-.85,1.18-1.27,2.63-1.27,4.36,0,1.17.2,2.25.6,3.21.4.97.96,1.73,1.69,2.27.73.54,1.57.82,2.52.82.66,0,1.33-.19,2.01-.57.68-.38,1.28-.93,1.82-1.63v1.38Z"/>
      <path d="M39.84,30.77c.62,2.16,1.8,3.25,3.56,3.25.73,0,1.35-.21,1.84-.64.49-.42.73-1,.73-1.74,0-.47-.09-.87-.26-1.22-.17-.35-.4-.66-.68-.93-.28-.28-.59-.52-.95-.74-.35-.22-.72-.44-1.09-.67-.37-.23-.74-.46-1.1-.71-.36-.25-.68-.53-.96-.84-.28-.31-.5-.67-.68-1.07-.17-.4-.26-.88-.26-1.43,0-1.07.38-1.97,1.14-2.67.76-.71,1.69-1.06,2.8-1.06.5,0,1.01.09,1.52.27.51.18.93.41,1.27.69v2.8c-.24-.89-.63-1.56-1.14-2.02-.52-.45-1.14-.68-1.87-.68-.68,0-1.25.23-1.69.68-.44.45-.67,1-.67,1.63,0,.52.15.99.45,1.41.3.42.8.84,1.48,1.26l1.1.64c.85.51,1.47.96,1.86,1.36.39.4.68.83.88,1.32.2.48.3,1.03.3,1.63,0,.72-.16,1.38-.49,1.96-.33.59-.81,1.04-1.44,1.37-.63.33-1.4.49-2.32.49-.64,0-1.25-.1-1.82-.31-.57-.2-1.07-.47-1.51-.8v-3.23Z"/>
    </g>
    <g>
      <path class="cls-1" d="M13.58,22.53c0-.41-.04-.74-.13-1-.09-.25-.19-.45-.32-.58-.13-.13-.29-.24-.51-.31h2.72l4.3,10.99,4.23-10.99h2.54c-.29.1-.5.31-.64.64-.14.33-.21.76-.21,1.29v10.23c0,.57.08,1.03.23,1.38.16.35.35.55.59.59h-3.12c.25-.06.45-.26.59-.6.14-.35.22-.8.22-1.37v-9.93l-4.73,12.16-4.73-12.16v9.8c0,.45.05.83.14,1.12.09.3.21.53.36.69.14.16.3.26.46.29h-2.99c.16-.03.32-.12.48-.28.16-.16.28-.38.38-.68.09-.3.14-.68.14-1.15v-10.14Z"/>
      <path class="cls-1" d="M38.24,33.04c-.5.65-1.1,1.16-1.8,1.52-.7.36-1.48.54-2.33.54-1.23,0-2.3-.29-3.22-.88-.92-.59-1.64-1.43-2.16-2.53-.52-1.1-.78-2.33-.78-3.7,0-1.44.29-2.77.87-3.98s1.37-2.13,2.37-2.77c1-.64,2.13-.95,3.39-.95s2.35.3,3.36.91v3.08c-.63-1.9-1.87-2.84-3.72-2.84-1.39,0-2.51.59-3.35,1.77-.85,1.18-1.27,2.63-1.27,4.36,0,1.17.2,2.25.6,3.21.4.97.96,1.73,1.69,2.27.73.54,1.57.82,2.52.82.66,0,1.33-.19,2.01-.57.68-.38,1.28-.93,1.82-1.63v1.38Z"/>
      <path class="cls-1" d="M39.84,30.77c.62,2.16,1.8,3.25,3.56,3.25.73,0,1.35-.21,1.84-.64.49-.42.73-1,.73-1.74,0-.47-.09-.87-.26-1.22-.17-.35-.4-.66-.68-.93-.28-.28-.59-.52-.95-.74-.35-.22-.72-.44-1.09-.67-.37-.23-.74-.46-1.1-.71-.36-.25-.68-.53-.96-.84-.28-.31-.5-.67-.68-1.07-.17-.4-.26-.88-.26-1.43,0-1.07.38-1.97,1.14-2.67.76-.71,1.69-1.06,2.8-1.06.5,0,1.01.09,1.52.27.51.18.93.41,1.27.69v2.8c-.24-.89-.63-1.56-1.14-2.02-.52-.45-1.14-.68-1.87-.68-.68,0-1.25.23-1.69.68-.44.45-.67,1-.67,1.63,0,.52.15.99.45,1.41.3.42.8.84,1.48,1.26l1.1.64c.85.51,1.47.96,1.86,1.36.39.4.68.83.88,1.32.2.48.3,1.03.3,1.63,0,.72-.16,1.38-.49,1.96-.33.59-.81,1.04-1.44,1.37-.63.33-1.4.49-2.32.49-.64,0-1.25-.1-1.82-.31-.57-.2-1.07-.47-1.51-.8v-3.23Z"/>
    </g>
  </g>
  <g>
    <path class="cls-1" d="M25.34,48.53c-1.39,0-2.78-.15-4.13-.46.36-1.45-.18-3.64-2.51-5.05-.42,1.15.23,3.52,1.75,4.86-.49-.13-.97-.29-1.44-.46-.33-.12-.65-.26-.97-.4.57-1.28.42-3.44-1.53-5.23-.58,1-.35,3.38.89,4.94-.77-.37-1.52-.79-2.23-1.26.75-1.17.92-3.33-.75-5.42-.72.89-.84,3.27.15,5.01-.41-.29-.81-.6-1.19-.93-.27-.23-.54-.47-.8-.72.93-.99,1.46-3.04.17-5.31-.84.74-1.34,3.03-.63,4.86-.6-.6-1.16-1.24-1.68-1.92,1.06-.83,1.88-2.79.9-5.25-.94.61-1.75,2.83-1.27,4.76-.34-.48-.67-.98-.97-1.49-.13-.22-.26-.45-.38-.67,1.11-.61,2.15-2.33,1.58-4.79-.97.43-2.03,2.39-1.84,4.27-.39-.77-.73-1.56-1.02-2.37,1.17-.4,2.44-1.88,2.25-4.37-1.01.26-2.34,2.02-2.41,3.89-.24-.74-.45-1.5-.61-2.26-.02-.08-.03-.16-.04-.24,1.19-.21,2.62-1.44,2.79-3.86-1,.08-2.53,1.54-2.89,3.31-.13-.75-.21-1.51-.26-2.27,1.15-.02,2.67-.98,3.15-3.24-.96-.07-2.61,1.09-3.18,2.73l-.02-.68.03-.86v-.43s.02-.21.02-.21l.02-.21.02-.17c1.08.2,2.7-.45,3.58-2.55-.91-.24-2.73.64-3.54,2.17l.03-.3.04-.43.07-.42.15-.84.02-.13c1.14.33,2.91-.17,3.9-2.31-.97-.33-2.96.44-3.83,2l.1-.39c.07-.28.13-.55.21-.83l.26-.81c.03-.09.06-.19.09-.28,1.08.44,2.84.15,3.94-1.79-.91-.42-2.86.08-3.82,1.45.02-.06.05-.12.07-.18.21-.53.41-1.06.67-1.56l.26-.55c.96.63,2.66.69,3.97-.94-.82-.58-2.79-.45-3.87.73h0s.42-.74.42-.74c.24-.45.53-.87.81-1.29.87.73,2.48,1.01,3.9-.38-.71-.66-2.54-.82-3.7.09.13-.18.27-.35.4-.53l.51-.67.4-.45c.73.82,2.25,1.32,3.76.15-.63-.74-2.46-1.11-3.66-.26l.05-.06c.19-.21.37-.42.57-.61.31-.31.63-.61.96-.9.64.9,2.09,1.56,3.71.59-.54-.8-2.27-1.38-3.54-.74.43-.37.87-.72,1.33-1.06,1.46.27,3.02-.95,3.28-1.93-1.86-.35-3.03.83-3.32,1.91-.47.33-.92.69-1.36,1.06,1.06-1.02,1.17-2.97.64-3.8-1.46,1.27-1.36,2.97-.77,3.91-.33.29-.66.59-.97.9-.13.12-.25.25-.37.38.71-1.16.57-2.85.02-3.54-1.3,1.41-1.05,3.07-.38,3.94l-.41.45-.52.66c-.13.17-.27.33-.39.5.7-1.32.33-3.2-.37-3.87-1.17,1.68-.66,3.37.16,4.17-.29.42-.59.84-.83,1.29l-.2.35c.42-1.41-.09-3.11-.81-3.67-1.01,1.85-.4,3.51.48,4.26l-.28.56c-.21.4-.39.83-.56,1.25.23-1.49-.42-3.11-1.18-3.61-.88,2.06-.11,3.74.86,4.43-.03.1-.07.2-.1.31l-.27.82c-.05.16-.09.33-.13.49,0-1.54-.82-3.06-1.62-3.45-.63,2.26.32,3.88,1.36,4.47l-.03.17-.16.85-.08.43-.05.43v.02c-.18-1.81-1.47-3.45-2.42-3.68-.12,2.53,1.2,3.99,2.35,4.32l-.02.2-.02.22v.22s-.03.43-.03.43l-.03.87v.31c-.42-1.85-1.95-3.38-3-3.51.1,2.74,1.72,4.16,3.04,4.38.04.7.1,1.39.2,2.08-.71-1.79-2.51-3.04-3.58-2.97.56,2.67,2.38,3.77,3.71,3.74.02.09.03.18.05.27.12.62.27,1.23.45,1.83-.99-1.54-2.85-2.42-3.86-2.18.93,2.52,2.84,3.32,4.16,3.11.22.65.48,1.28.76,1.9-1.16-1.32-3-1.91-3.95-1.57,1.18,2.39,3.17,2.96,4.45,2.61.13.25.26.49.4.73.25.43.52.85.79,1.26-1.44-1.11-3.5-1.25-4.38-.65,1.7,2,3.75,2.06,4.91,1.39.45.6.92,1.17,1.43,1.71-1.55-.84-3.53-.7-4.32,0,1.92,1.76,3.95,1.55,5.03.74.28.27.56.53.85.78.28.24.56.47.85.69-1.69-.59-3.66-.16-4.35.64,2.22,1.51,4.28,1,5.26.02.66.45,1.34.85,2.04,1.21-1.82-.21-3.72.72-4.22,1.7,2.48.9,4.35-.09,5.09-1.28.35.16.69.31,1.05.44.38.15.77.27,1.16.39-1.87.13-3.64,1.43-3.99,2.53,2.68.5,4.45-.87,5.02-2.25,1.41.34,2.86.51,4.3.53v-.58Z"/>
    <path class="cls-1" d="M34.66,48.53c1.39,0,2.78-.15,4.13-.46-.36-1.45.18-3.64,2.51-5.05.42,1.15-.23,3.52-1.75,4.86.49-.13.97-.29,1.44-.46.33-.12.65-.26.97-.4-.57-1.28-.42-3.44,1.53-5.23.58,1,.35,3.38-.89,4.94.77-.37,1.52-.79,2.23-1.26-.75-1.17-.92-3.33.75-5.42.72.89.84,3.27-.15,5.01.41-.29.81-.6,1.19-.93.27-.23.54-.47.8-.72-.93-.99-1.46-3.04-.17-5.31.84.74,1.34,3.03.63,4.86.6-.6,1.16-1.24,1.68-1.92-1.06-.83-1.88-2.79-.9-5.25.94.61,1.75,2.83,1.27,4.76.34-.48.67-.98.97-1.49.13-.22.26-.45.38-.67-1.11-.61-2.15-2.33-1.58-4.79.97.43,2.03,2.39,1.84,4.27.39-.77.73-1.56,1.02-2.37-1.17-.4-2.44-1.88-2.25-4.37,1.01.26,2.34,2.02,2.41,3.89.24-.74.45-1.5.61-2.26.02-.08.03-.16.04-.24-1.19-.21-2.62-1.44-2.79-3.86,1,.08,2.53,1.54,2.89,3.31.13-.75.21-1.51.26-2.27-1.15-.02-2.67-.98-3.15-3.24.96-.07,2.61,1.09,3.18,2.73l.02-.68-.03-.86v-.43s-.02-.21-.02-.21l-.02-.21-.02-.17c-1.08.2-2.7-.45-3.58-2.55.91-.24,2.73.64,3.54,2.17l-.03-.3-.04-.43-.07-.42-.15-.84-.02-.13c-1.14.33-2.91-.17-3.9-2.31.97-.33,2.96.44,3.83,2l-.1-.39c-.07-.28-.13-.55-.21-.83l-.26-.81c-.03-.09-.06-.19-.09-.28-1.08.44-2.84.15-3.94-1.79.91-.42,2.86.08,3.82,1.45-.02-.06-.05-.12-.07-.18-.21-.53-.41-1.06-.67-1.56l-.26-.55c-.96.63-2.66.69-3.97-.94.82-.58,2.79-.45,3.87.73h0s-.42-.74-.42-.74c-.24-.45-.53-.87-.81-1.29-.87.73-2.48,1.01-3.9-.38.71-.66,2.54-.82,3.7.09-.13-.18-.27-.35-.4-.53l-.51-.67-.4-.45c-.73.82-2.25,1.32-3.76.15.63-.74,2.46-1.11,3.66-.26l-.05-.06c-.19-.21-.37-.42-.57-.61-.31-.31-.63-.61-.96-.9-.64.9-2.09,1.56-3.71.59.54-.8,2.27-1.38,3.54-.74-.43-.37-.87-.72-1.33-1.06-1.46.27-3.02-.95-3.28-1.93,1.86-.35,3.03.83,3.32,1.91.47.33.92.69,1.36,1.06-1.06-1.02-1.17-2.97-.64-3.8,1.46,1.27,1.36,2.97.77,3.91.33.29.66.59.97.9.13.12.25.25.37.38-.71-1.16-.57-2.85-.02-3.54,1.3,1.41,1.05,3.07.38,3.94l.41.45.52.66c.13.17.27.33.39.5-.7-1.32-.33-3.2.37-3.87,1.17,1.68.66,3.37-.16,4.17.29.42.59.84.83,1.29l.2.35c-.42-1.41.09-3.11.81-3.67,1.01,1.85.4,3.51-.48,4.26l.28.56c.21.4.39.83.56,1.25-.23-1.49.42-3.11,1.18-3.61.88,2.06.11,3.74-.86,4.43.03.1.07.2.1.31l.27.82c.05.16.09.33.13.49,0-1.54.82-3.06,1.62-3.45.63,2.26-.32,3.88-1.36,4.47l.03.17.16.85.08.43.05.43v.02c.18-1.81,1.47-3.45,2.42-3.68.12,2.53-1.2,3.99-2.35,4.32l.02.2.02.22v.22s.03.43.03.43l.03.87v.31c.42-1.85,1.95-3.38,3-3.51-.1,2.74-1.72,4.16-3.04,4.38-.04.7-.1,1.39-.2,2.08.71-1.79,2.51-3.04,3.58-2.97-.56,2.67-2.38,3.77-3.71,3.74-.02.09-.03.18-.05.27-.12.62-.27,1.23-.45,1.83.99-1.54,2.85-2.42,3.86-2.18-.93,2.52-2.84,3.32-4.16,3.11-.22.65-.48,1.28-.76,1.9,1.16-1.32,3-1.91,3.95-1.57-1.18,2.39-3.17,2.96-4.45,2.61-.13.25-.26.49-.4.73-.25.43-.52.85-.79,1.26,1.44-1.11,3.5-1.25,4.38-.65-1.7,2-3.75,2.06-4.91,1.39-.45.6-.92,1.17-1.43,1.71,1.55-.84,3.53-.7,4.32,0-1.92,1.76-3.95,1.55-5.03.74-.28.27-.56.53-.85.78-.28.24-.56.47-.85.69,1.69-.59,3.66-.16,4.35.64-2.22,1.51-4.28,1-5.26.02-.66.45-1.34.85-2.04,1.21,1.82-.21,3.72.72,4.22,1.7-2.48.9-4.35-.09-5.09-1.28-.35.16-.69.31-1.05.44-.38.15-.77.27-1.16.39,1.87.13,3.64,1.43,3.99,2.53-2.68.5-4.45-.87-5.02-2.25-1.41.34-2.86.51-4.3.53v-.58Z"/>
  </g>
</svg>